<?xml version="1.0" encoding="utf-8"?>
<!-- Generator: Adobe Illustrator 25.0.1, SVG Export Plug-In . SVG Version: 6.00 Build 0)  -->
<svg version="1.1" id="Aspose_Contact_Form" xmlns="http://www.w3.org/2000/svg" xmlns:xlink="http://www.w3.org/1999/xlink"
	 x="0px" y="0px" viewBox="0 0 128 128" style="enable-background:new 0 0 128 128;" xml:space="preserve">
<style type="text/css">
	.st0{fill:#2373B2;}
</style>
<g id="Contact_Form">
	<path class="st0" d="M90.5,14H28.3c-4.9,0-8.9,4-8.9,8.9v77.3c0,4.9,4,8.9,8.9,8.9h55.5l-1.2-5.9H28.3c-1.6,0-3-1.3-3-3V30h68.2
		v52.9l5.9,3.6V22.9C99.5,18,95.5,14,90.5,14z M29.1,25.9c-1.7,0-3.2-1.4-3.2-3.2s1.4-3.2,3.2-3.2c1.7,0,3.2,1.4,3.2,3.2
		S30.9,25.9,29.1,25.9z M38.5,25.9c-1.7,0-3.2-1.4-3.2-3.2s1.4-3.2,3.2-3.2c1.7,0,3.2,1.4,3.2,3.2S40.2,25.9,38.5,25.9z M47.8,25.9
		c-1.7,0-3.2-1.4-3.2-3.2s1.4-3.2,3.2-3.2c1.7,0,3.2,1.4,3.2,3.2S49.6,25.9,47.8,25.9z"/>
	<g>
		<g>
			<path class="st0" d="M77.3,53.8H41.5c-3.9,0-7.2-3.2-7.2-7.2c0-3.9,3.2-7.2,7.2-7.2h35.9c3.9,0,7.2,3.2,7.2,7.2
				C84.5,50.5,81.3,53.8,77.3,53.8z M41.5,43.4c-1.8,0-3.2,1.4-3.2,3.2s1.4,3.2,3.2,3.2h35.9c1.8,0,3.2-1.4,3.2-3.2
				s-1.4-3.2-3.2-3.2H41.5z"/>
		</g>
		<g>
			<path class="st0" d="M77.3,74.3H41.5c-3.9,0-7.2-3.2-7.2-7.2c0-3.9,3.2-7.2,7.2-7.2h35.9c3.9,0,7.2,3.2,7.2,7.2
				C84.5,71,81.3,74.3,77.3,74.3z M41.5,63.9c-1.8,0-3.2,1.4-3.2,3.2s1.4,3.2,3.2,3.2h35.9c1.8,0,3.2-1.4,3.2-3.2s-1.4-3.2-3.2-3.2
				C77.4,63.9,41.5,63.9,41.5,63.9z"/>
		</g>
		<path class="st0" d="M69.7,89.5H49c-2.5,0-4.5-2-4.5-4.5l0,0c0-2.5,2-4.5,4.5-4.5h20.8c2.5,0,4.5,2,4.5,4.5l0,0
			C74.2,87.6,72.2,89.5,69.7,89.5z"/>
	</g>
	<g>
		<path class="st0" d="M100.2,100.9l6.2,8.7c0.4,0.6,0.3,1.4-0.3,1.9l-3.1,2.3c-0.6,0.4-1.4,0.3-1.8-0.3l-5.9-8.3l-4.7,7.7
			c-0.6,1-2.1,0.7-2.4-0.4l-7-30.4c-0.3-1.2,1-2,1.9-1.4L108,96.8c1,0.6,0.7,2.2-0.4,2.4L100.2,100.9z"/>
	</g>
</g>
</svg>
